<svg xmlns="http://www.w3.org/2000/svg" xmlns:xlink="http://www.w3.org/1999/xlink" width="1876.895" height="1636.034" viewBox="0 0 1876.895 1636.034"><defs><filter id="a" x="1002" y="125" width="874.895" height="1511.034" filterUnits="userSpaceOnUse"><feOffset dx="2" dy="2" input="SourceAlpha"/><feGaussianBlur stdDeviation="9.5" result="b"/><feFlood flood-opacity="0.161"/><feComposite operator="in" in2="b"/><feComposite in="SourceGraphic"/></filter><filter id="c" x="1045.74" y="533.763" width="779.297" height="451.383" filterUnits="userSpaceOnUse"><feOffset dx="4" dy="4" input="SourceAlpha"/><feGaussianBlur stdDeviation="12.5" result="d"/><feFlood flood-opacity="0.161"/><feComposite operator="in" in2="d"/><feComposite in="SourceGraphic"/></filter><filter id="e" x="0" y="125" width="874.895" height="1511.034" filterUnits="userSpaceOnUse"><feOffset dx="2" dy="2" input="SourceAlpha"/><feGaussianBlur stdDeviation="9.5" result="f"/><feFlood flood-opacity="0.161"/><feComposite operator="in" in2="f"/><feComposite in="SourceGraphic"/></filter><filter id="g" x="43.74" y="533.763" width="779.297" height="451.383" filterUnits="userSpaceOnUse"><feOffset dx="4" dy="4" input="SourceAlpha"/><feGaussianBlur stdDeviation="12.5" result="h"/><feFlood flood-opacity="0.161"/><feComposite operator="in" in2="h"/><feComposite in="SourceGraphic"/></filter><filter id="i" x="485" y="0" width="886.895" height="1523.034" filterUnits="userSpaceOnUse"><feOffset dx="5" dy="5" input="SourceAlpha"/><feGaussianBlur stdDeviation="11.5" result="j"/><feFlood flood-opacity="0.161"/><feComposite operator="in" in2="j"/><feComposite in="SourceGraphic"/></filter><filter id="k" x="531.74" y="411.763" width="779.297" height="451.383" filterUnits="userSpaceOnUse"><feOffset dx="4" dy="4" input="SourceAlpha"/><feGaussianBlur stdDeviation="12.5" result="l"/><feFlood flood-opacity="0.161"/><feComposite operator="in" in2="l"/><feComposite in="SourceGraphic"/></filter></defs><g transform="translate(370.035 -481.5)"><g transform="translate(658.465 633)" opacity="0.5"><g transform="matrix(1, 0, 0, 1, -1028.5, -151.5)" filter="url(#a)"><rect width="817.894" height="1454.034" transform="translate(1028.5 151.5)" fill="#fff"/></g><text transform="translate(50.74 318.029)" fill="#707070" font-size="59" font-family="SFProDisplay-Bold, SF Pro Display" font-weight="700"><tspan x="0" y="0">Dobrý večer, Adélo</tspan></text><text transform="translate(50.74 375.333)" fill="#707070" font-size="32" font-family="SFProDisplay-Bold, SF Pro Display" font-weight="700"><tspan x="0" y="0">Je 12:00, 24. listopadu.</tspan></text><text transform="translate(50.74 455.608)" fill="#707070" font-size="32" font-family="SFProDisplay-Bold, SF Pro Display" font-weight="700"><tspan x="0" y="0">Máte nové známky</tspan></text><g transform="translate(50.74 50.74)"><rect width="36.784" height="5.255" transform="translate(0 0)"/><rect width="36.784" height="5.255" transform="translate(0 22.771)"/><rect width="36.784" height="5.255" transform="translate(0 11.385)"/></g><g transform="translate(0 1338.166)" fill="#ffc400" stroke="#707070" stroke-width="1"><rect width="817.894" height="115.868" stroke="none"/><rect x="0.5" y="0.5" width="816.894" height="114.868" fill="none"/></g><text transform="translate(40.895 1406.031)" fill="#fff" font-size="32" font-family="SFProDisplay-Bold, SF Pro Display" font-weight="700"><tspan x="0" y="0">8:55 - 9:40</tspan></text><text transform="translate(279.447 1408.031)" fill="#fff" font-size="34" font-family="SFProDisplay-Bold, SF Pro Display" font-weight="700"><tspan x="0" y="0">Anglický jazyk</tspan></text><text transform="translate(690.666 1406.031)" fill="#fff" font-size="32" font-family="SFProDisplay-Bold, SF Pro Display" font-weight="700"><tspan x="0" y="0">204</tspan></text><g transform="translate(53.769 816.38)"><g transform="translate(6.058 326.4)"><g transform="translate(0)" fill="#fff" stroke="#707070" stroke-width="1"><rect width="704.298" height="123.441" rx="38" stroke="none"/><rect x="0.5" y="0.5" width="703.298" height="122.441" rx="37.5" fill="none"/></g><text transform="translate(32.564 82.719)" fill="#f50000" font-size="63" font-family="SFProDisplay-Bold, SF Pro Display" font-weight="700"><tspan x="0" y="0">1</tspan></text><text transform="translate(178.725 62.564)" fill="#434343" font-size="32" font-family="SFProDisplay-Bold, SF Pro Display" font-weight="700"><tspan x="0" y="0">Český jazyk</tspan></text><text transform="translate(178.725 84.129)" fill="#878787" font-size="20" font-family="SFProDisplay-Bold, SF Pro Display" font-weight="700"><tspan x="0" y="0">Gramatika a pravopis</tspan></text><text transform="translate(581.614 73.652)" fill="#a8a8a8" font-size="34" font-family="SFProDisplay-Bold, SF Pro Display" font-weight="700"><tspan x="0" y="0">22.11.</tspan></text></g><text transform="translate(0 295.816)" fill="#707070" font-size="32" font-family="SFProDisplay-Bold, SF Pro Display" font-weight="700"><tspan x="0" y="0">Máte nové známky</tspan></text><text transform="translate(0 30)" fill="#707070" font-size="32" font-family="SFProDisplay-Bold, SF Pro Display" font-weight="700"><tspan x="0" y="0">Domácí úkoly</tspan></text><g transform="translate(3.029 70.43)"><g transform="translate(0)" fill="#fff" stroke="#707070" stroke-width="1"><rect width="704.298" height="123.441" rx="38" stroke="none"/><rect x="0.5" y="0.5" width="703.298" height="122.441" rx="37.5" fill="none"/></g><text transform="translate(32.564 83.719)" fill="#979797" font-size="64" font-family="SFProDisplay-Bold, SF Pro Display" font-weight="700"><tspan x="0" y="0">EN</tspan></text><text transform="translate(178.725 37.108)" fill="#434343" font-size="30" font-family="SFProDisplay-Bold, SF Pro Display" font-weight="700"><tspan x="0" y="29">Nakreslete V-A </tspan></text><text transform="translate(178.725 84.129)" fill="#878787" font-size="20" font-family="SFProDisplay-Bold, SF Pro Display" font-weight="700"><tspan x="0" y="0">Odevzdat do 30.11.</tspan></text><text transform="translate(581.614 72.652)" fill="#a8a8a8" font-size="33" font-family="SFProDisplay-Bold, SF Pro Display" font-weight="700"><tspan x="0" y="0">15.11.</tspan></text></g></g><g transform="matrix(1, 0, 0, 1, -1028.5, -151.5)" filter="url(#c)"><rect width="704.298" height="376.383" rx="38" transform="translate(1079.24 567.26)" fill="#ff5656"/></g><text transform="translate(87.848 481.356)" fill="#fff" font-size="32" font-family="SFProDisplay-Bold, SF Pro Display" font-weight="700"><tspan x="0" y="0">Pozor!</tspan></text><text transform="translate(87.848 545.728)" fill="#fff" font-size="32" font-family="SFProDisplay-Bold, SF Pro Display" font-weight="700"><tspan x="0" y="0">Máš nevyřízenou absenci ze dne</tspan><tspan x="0" y="38">24. listopadu, 1. a 2. hodinu.</tspan></text><text transform="translate(87.848 682.073)" fill="#fff" font-size="28" font-family="SFProDisplay-Bold, SF Pro Display" font-weight="700"><tspan x="0" y="0">Zkontrolovat</tspan></text><text transform="translate(152.977 763.105)" fill="#fff" font-size="28" font-family="SFProDisplay-Bold, SF Pro Display" font-weight="700"><tspan x="0" y="0">Již nezobrazovat</tspan></text><line x2="704.298" transform="translate(51.118 709.978)" fill="none" stroke="#fff" stroke-width="1"/><line x2="704.298" transform="translate(51.118 631.975)" fill="none" stroke="#fff" stroke-width="1"/><path d="M34.546,6.344,22.436,18.451,10.329,6.344,6.293,10.38,18.4,22.487,6.293,34.594l4.036,4.036L22.436,26.523,34.546,38.63l4.036-4.036L26.475,22.487,38.582,10.38Z" transform="translate(81.555 729.761)" fill="#fff"/></g><g transform="translate(-343.535 633)" opacity="0.5"><g transform="matrix(1, 0, 0, 1, -26.5, -151.5)" filter="url(#e)"><rect width="817.894" height="1454.034" transform="translate(26.5 151.5)" fill="#fff"/></g><text transform="translate(50.74 318.029)" fill="#707070" font-size="59" font-family="SFProDisplay-Bold, SF Pro Display" font-weight="700"><tspan x="0" y="0">Dobré ráno, Jakube</tspan></text><text transform="translate(50.74 375.333)" fill="#707070" font-size="32" font-family="SFProDisplay-Bold, SF Pro Display" font-weight="700"><tspan x="0" y="0">Je 12:00, 24. listopadu.</tspan></text><text transform="translate(50.74 455.608)" fill="#707070" font-size="32" font-family="SFProDisplay-Bold, SF Pro Display" font-weight="700"><tspan x="0" y="0">Máte nové známky</tspan></text><g transform="translate(50.74 50.74)"><rect width="36.784" height="5.255" transform="translate(0 0)"/><rect width="36.784" height="5.255" transform="translate(0 22.771)"/><rect width="36.784" height="5.255" transform="translate(0 11.385)"/></g><g transform="translate(0 1338.166)" fill="#ffc400" stroke="#707070" stroke-width="1"><rect width="817.894" height="115.868" stroke="none"/><rect x="0.5" y="0.5" width="816.894" height="114.868" fill="none"/></g><text transform="translate(40.895 1406.031)" fill="#fff" font-size="32" font-family="SFProDisplay-Bold, SF Pro Display" font-weight="700"><tspan x="0" y="0">13:10 - 13:55</tspan></text><text transform="translate(279.447 1408.031)" fill="#fff" font-size="34" font-family="SFProDisplay-Bold, SF Pro Display" font-weight="700"><tspan x="0" y="0">Matematika</tspan></text><text transform="translate(690.666 1406.031)" fill="#fff" font-size="32" font-family="SFProDisplay-Bold, SF Pro Display" font-weight="700"><tspan x="0" y="0">204</tspan></text><g transform="translate(53.769 816.38)"><g transform="translate(6.058 326.4)"><g transform="translate(0)" fill="#fff" stroke="#707070" stroke-width="1"><rect width="704.298" height="123.441" rx="38" stroke="none"/><rect x="0.5" y="0.5" width="703.298" height="122.441" rx="37.5" fill="none"/></g><text transform="translate(32.564 82.719)" fill="#f50000" font-size="63" font-family="SFProDisplay-Bold, SF Pro Display" font-weight="700"><tspan x="0" y="0">1</tspan></text><text transform="translate(178.725 62.564)" fill="#434343" font-size="32" font-family="SFProDisplay-Bold, SF Pro Display" font-weight="700"><tspan x="0" y="0">Elektronika</tspan></text><text transform="translate(178.725 84.129)" fill="#878787" font-size="20" font-family="SFProDisplay-Bold, SF Pro Display" font-weight="700"><tspan x="0" y="0">Ohmův zákon</tspan></text><text transform="translate(581.614 73.652)" fill="#a8a8a8" font-size="34" font-family="SFProDisplay-Bold, SF Pro Display" font-weight="700"><tspan x="0" y="0">22.11.</tspan></text></g><text transform="translate(0 295.816)" fill="#707070" font-size="32" font-family="SFProDisplay-Bold, SF Pro Display" font-weight="700"><tspan x="0" y="0">Máte nové známky</tspan></text><text transform="translate(0 30)" fill="#707070" font-size="32" font-family="SFProDisplay-Bold, SF Pro Display" font-weight="700"><tspan x="0" y="0">Domácí úkoly</tspan></text><g transform="translate(3.029 70.43)"><g transform="translate(0)" fill="#fff" stroke="#707070" stroke-width="1"><rect width="704.298" height="123.441" rx="38" stroke="none"/><rect x="0.5" y="0.5" width="703.298" height="122.441" rx="37.5" fill="none"/></g><text transform="translate(32.564 83.719)" fill="#979797" font-size="64" font-family="SFProDisplay-Bold, SF Pro Display" font-weight="700"><tspan x="0" y="0">EN</tspan></text><text transform="translate(178.725 37.108)" fill="#434343" font-size="30" font-family="SFProDisplay-Bold, SF Pro Display" font-weight="700"><tspan x="0" y="29">Nakreslete V-A </tspan></text><text transform="translate(178.725 84.129)" fill="#878787" font-size="20" font-family="SFProDisplay-Bold, SF Pro Display" font-weight="700"><tspan x="0" y="0">Odevzdat do 30.11.</tspan></text><text transform="translate(581.614 72.652)" fill="#a8a8a8" font-size="33" font-family="SFProDisplay-Bold, SF Pro Display" font-weight="700"><tspan x="0" y="0">15.11.</tspan></text></g></g><g transform="matrix(1, 0, 0, 1, -26.5, -151.5)" filter="url(#g)"><rect width="704.298" height="376.383" rx="38" transform="translate(77.24 567.26)" fill="#ff5656"/></g><text transform="translate(87.848 481.356)" fill="#fff" font-size="32" font-family="SFProDisplay-Bold, SF Pro Display" font-weight="700"><tspan x="0" y="0">Pozor!</tspan></text><text transform="translate(87.848 545.728)" fill="#fff" font-size="32" font-family="SFProDisplay-Bold, SF Pro Display" font-weight="700"><tspan x="0" y="0">Máš nevyřízenou absenci ze dne</tspan><tspan x="0" y="38">24. listopadu, 1. a 2. hodinu.</tspan></text><text transform="translate(87.848 682.073)" fill="#fff" font-size="28" font-family="SFProDisplay-Bold, SF Pro Display" font-weight="700"><tspan x="0" y="0">Zkontrolovat</tspan></text><text transform="translate(152.977 763.105)" fill="#fff" font-size="28" font-family="SFProDisplay-Bold, SF Pro Display" font-weight="700"><tspan x="0" y="0">Již nezobrazovat</tspan></text><line x2="704.298" transform="translate(51.118 709.978)" fill="none" stroke="#fff" stroke-width="1"/><line x2="704.298" transform="translate(51.118 631.975)" fill="none" stroke="#fff" stroke-width="1"/><path d="M34.546,6.344,22.436,18.451,10.329,6.344,6.293,10.38,18.4,22.487,6.293,34.594l4.036,4.036L22.436,26.523,34.546,38.63l4.036-4.036L26.475,22.487,38.582,10.38Z" transform="translate(81.555 729.761)" fill="#fff"/></g><g transform="translate(144.465 511)"><g transform="matrix(1, 0, 0, 1, -514.5, -29.5)" filter="url(#i)"><rect width="817.894" height="1454.034" transform="translate(514.5 29.5)" fill="#fff"/></g><text transform="translate(50.74 318.029)" fill="#707070" font-size="59" font-family="SFProDisplay-Bold, SF Pro Display" font-weight="700"><tspan x="0" y="0">Dobré odpoledne, René</tspan></text><text transform="translate(50.74 375.333)" fill="#707070" font-size="32" font-family="SFProDisplay-Bold, SF Pro Display" font-weight="700"><tspan x="0" y="0">Je 12:48, 28. listopadu.</tspan></text><g transform="translate(50.74 50.74)"><rect width="36.784" height="5.255" transform="translate(0 0)"/><rect width="36.784" height="5.255" transform="translate(0 22.771)"/><rect width="36.784" height="5.255" transform="translate(0 11.385)"/></g><rect width="817.894" height="115.868" transform="translate(0 1338.166)" fill="#ffc400"/><text transform="translate(40.895 1406.031)" fill="#fff" font-size="32" font-family="SFProDisplay-Bold, SF Pro Display" font-weight="700"><tspan x="0" y="0">13:10 - 13:55</tspan></text><text transform="translate(279.447 1408.031)" fill="#fff" font-size="34" font-family="SFProDisplay-Bold, SF Pro Display" font-weight="700"><tspan x="0" y="0">Matematika</tspan></text><text transform="translate(690.666 1406.031)" fill="#fff" font-size="32" font-family="SFProDisplay-Bold, SF Pro Display" font-weight="700"><tspan x="0" y="0">204</tspan></text><g transform="translate(53.769 816.38)"><g transform="translate(6.058 326.4)"><g transform="translate(0)" fill="#fff" stroke="#707070" stroke-width="1"><rect width="704.298" height="123.441" rx="25" stroke="none"/><rect x="0.5" y="0.5" width="703.298" height="122.441" rx="24.5" fill="none"/></g><text transform="translate(32.564 82.719)" fill="#f50000" font-size="63" font-family="SFProDisplay-Bold, SF Pro Display" font-weight="700"><tspan x="0" y="0">1</tspan></text><text transform="translate(178.725 62.564)" fill="#434343" font-size="32" font-family="SFProDisplay-Bold, SF Pro Display" font-weight="700"><tspan x="0" y="0">Elektronika</tspan></text><text transform="translate(178.725 84.129)" fill="#878787" font-size="20" font-family="SFProDisplay-Bold, SF Pro Display" font-weight="700"><tspan x="0" y="0">Ohmův zákon</tspan></text><text transform="translate(581.614 73.652)" fill="#a8a8a8" font-size="34" font-family="SFProDisplay-Bold, SF Pro Display" font-weight="700"><tspan x="0" y="0">22.11.</tspan></text></g><text transform="translate(0 295.816)" fill="#707070" font-size="32" font-family="SFProDisplay-Bold, SF Pro Display" font-weight="700"><tspan x="0" y="0">Máte nové známky</tspan></text><text transform="translate(0 30)" fill="#707070" font-size="32" font-family="SFProDisplay-Bold, SF Pro Display" font-weight="700"><tspan x="0" y="0">Domácí úkoly</tspan></text><g transform="translate(3.029 70.43)"><g transform="translate(0)" fill="#fff" stroke="#707070" stroke-width="1"><rect width="704.298" height="123.441" rx="25" stroke="none"/><rect x="0.5" y="0.5" width="703.298" height="122.441" rx="24.5" fill="none"/></g><text transform="translate(32.564 83.719)" fill="#979797" font-size="64" font-family="SFProDisplay-Bold, SF Pro Display" font-weight="700"><tspan x="0" y="0">EN</tspan></text><text transform="translate(178.725 85.129)" fill="#878787" font-size="20" font-family="SFProDisplay-Bold, SF Pro Display" font-weight="700"><tspan x="0" y="0">Odevzdat do 30.11.</tspan></text><text transform="translate(581.614 72.652)" fill="#a8a8a8" font-size="33" font-family="SFProDisplay-Bold, SF Pro Display" font-weight="700"><tspan x="0" y="0">15.11.</tspan></text><text transform="translate(178.754 62.535)" fill="#434343" font-size="32" font-family="SFProDisplay-Bold, SF Pro Display" font-weight="700"><tspan x="0" y="0">Nakreslete VA schéma</tspan></text></g></g><g transform="matrix(1, 0, 0, 1, -514.5, -29.5)" filter="url(#k)"><rect width="704.298" height="376.383" rx="38" transform="translate(565.24 445.26)" fill="#ff5656"/></g><text transform="translate(87.848 481.356)" fill="#fff" font-size="32" font-family="SFProDisplay-Bold, SF Pro Display" font-weight="700"><tspan x="0" y="0">Pozor!</tspan></text><text transform="translate(87.848 545.728)" fill="#fff" font-size="32" font-family="SFProDisplay-Bold, SF Pro Display" font-weight="700"><tspan x="0" y="0">Máš nevyřízenou absenci ze dne</tspan><tspan x="0" y="38">22. listopadu, 1. a 2. hodinu.</tspan></text><text transform="translate(87.848 682.073)" fill="#fff" font-size="28" font-family="SFProDisplay-Bold, SF Pro Display" font-weight="700"><tspan x="0" y="0">Zkontrolovat</tspan></text><text transform="translate(152.977 763.105)" fill="#fff" font-size="28" font-family="SFProDisplay-Bold, SF Pro Display" font-weight="700"><tspan x="0" y="0">Již nezobrazovat</tspan></text><line x2="704.298" transform="translate(51.118 709.978)" fill="none" stroke="#fff" stroke-width="1"/><line x2="704.298" transform="translate(51.118 631.975)" fill="none" stroke="#fff" stroke-width="1"/><path d="M34.546,6.344,22.436,18.451,10.329,6.344,6.293,10.38,18.4,22.487,6.293,34.594l4.036,4.036L22.436,26.523,34.546,38.63l4.036-4.036L26.475,22.487,38.582,10.38Z" transform="translate(81.555 729.761)" fill="#fff"/></g></g></svg>