<svg xmlns="http://www.w3.org/2000/svg" width="64.992" height="63.389" viewBox="0 0 64.992 63.389"><path d="M34.549,2A32.5,32.5,0,0,0,24.276,65.335c1.626.293,2.212-.707,2.212-1.567,0-.772-.026-2.818-.036-5.526C17.411,60.2,15.5,53.883,15.5,53.883c-1.473-3.753-3.607-4.754-3.607-4.754-2.949-2.017.225-1.971.225-1.971,3.265.228,4.975,3.349,4.975,3.349,2.9,4.965,7.611,3.532,9.455,2.7a6.967,6.967,0,0,1,2.069-4.346c-7.214-.818-14.8-3.607-14.8-16.063a12.592,12.592,0,0,1,3.336-8.716,11.689,11.689,0,0,1,.323-8.6s2.727-.876,8.934,3.327a30.753,30.753,0,0,1,16.265,0c6.21-4.206,8.934-3.327,8.934-3.327a11.636,11.636,0,0,1,.323,8.6A12.512,12.512,0,0,1,55.271,32.8c0,12.489-7.592,15.232-14.831,16.037,1.157,1,2.2,2.984,2.2,6.015,0,4.346-.039,7.852-.039,8.918,0,.87.58,1.88,2.238,1.561A32.5,32.5,0,0,0,34.549,2Z" transform="translate(-2.053 -2)" fill="#6e6e6e" fill-rule="evenodd"/></svg>