<svg xmlns="http://www.w3.org/2000/svg" width="673.146" height="334.939" viewBox="0 0 673.146 334.939"><g transform="translate(-1309.672 -1456)"><g transform="translate(-5223 2806)"><path d="M26.021,21.123l99.156-.018L153.86,71.6-.1,71.652Z" transform="translate(6686.035 -1105.667) rotate(-90)" fill="#6e6e6e"/><path d="M109.5,0,273.664,90.526l-50.51,31.409L109.043,65.525Z" transform="translate(6484 -1350)" fill="#878787"/><path d="M109.5,121.934,273.664,31.409,223.154,0,109.043,56.409Z" transform="translate(6484 -1137)" fill="#878787"/><path d="M29.932,16.5H306.815L334.9,77.35,0,77.331Z" transform="translate(6516.171 -1015.066) rotate(-90)" fill="#a1a1a1"/></g><path d="M27.864-60.2a30.4,30.4,0,0,1,11.825,2.279,29.03,29.03,0,0,1,9.46,6.278,28.37,28.37,0,0,1,6.235,9.5A31.694,31.694,0,0,1,57.62-30.1a31.694,31.694,0,0,1-2.236,12.04,28.37,28.37,0,0,1-6.235,9.5,29.03,29.03,0,0,1-9.46,6.278A30.4,30.4,0,0,1,27.864,0H6.622V-60.2ZM47.816-30.1a22.134,22.134,0,0,0-1.462-8.127,18.864,18.864,0,0,0-4.128-6.45,18.8,18.8,0,0,0-6.321-4.214A20.921,20.921,0,0,0,27.864-50.4H16.426V-9.8H27.864a20.921,20.921,0,0,0,8.041-1.5,18.8,18.8,0,0,0,6.321-4.214,18.864,18.864,0,0,0,4.128-6.45A22.134,22.134,0,0,0,47.816-30.1ZM84.022-60.2V0h-9.8V-60.2ZM101.91-43.43a16.612,16.612,0,0,1,1.462-7.1,15.066,15.066,0,0,1,4.042-5.289,17.968,17.968,0,0,1,6.02-3.268,23.507,23.507,0,0,1,7.31-1.118,20.19,20.19,0,0,1,12.47,3.87,19.034,19.034,0,0,1,6.966,10.922l-9.03,3.7q-1.2-4.644-3.913-6.665a10.832,10.832,0,0,0-6.665-2.021q-4.386,0-6.622,2.064a6.544,6.544,0,0,0-2.236,4.988,5.773,5.773,0,0,0,.86,3.268,7.574,7.574,0,0,0,2.408,2.236,20.715,20.715,0,0,0,3.655,1.72q2.107.774,4.6,1.548,3.268,1.118,6.235,2.451a19.779,19.779,0,0,1,5.2,3.354,14.624,14.624,0,0,1,3.526,4.859,16.558,16.558,0,0,1,1.29,6.88,17.553,17.553,0,0,1-1.462,7.4,15.2,15.2,0,0,1-4,5.332A16.993,16.993,0,0,1,128.1-1.075,23.662,23.662,0,0,1,120.916,0a25.445,25.445,0,0,1-6.192-.774,18.512,18.512,0,0,1-5.762-2.537,18.108,18.108,0,0,1-4.687-4.558,18.883,18.883,0,0,1-2.967-6.923l8.686-4.128Q112.058-9.8,120.916-9.8a10.1,10.1,0,0,0,6.45-1.849,6.367,6.367,0,0,0,2.322-5.289,6.379,6.379,0,0,0-.86-3.44,7.477,7.477,0,0,0-2.322-2.322,16.265,16.265,0,0,0-3.4-1.634q-1.935-.688-4.085-1.376a53.145,53.145,0,0,1-5.934-2.15,23.227,23.227,0,0,1-5.5-3.311,16.172,16.172,0,0,1-4.085-4.988A15.213,15.213,0,0,1,101.91-43.43ZM181.46-50.4V0h-9.8V-50.4h-22.79v-9.8h55.3v9.8ZM236.5-28.81h7.377l3.889-1.032a9.944,9.944,0,0,0,4.429-3.784,10.8,10.8,0,0,0,1.677-6.02,10.4,10.4,0,0,0-3.053-7.74,10.733,10.733,0,0,0-7.869-3.01H228.072V-28.81ZM228.072,0h-9.8V-60.2H242.95a21.924,21.924,0,0,1,8.3,1.548,19.548,19.548,0,0,1,6.579,4.3,19.65,19.65,0,0,1,4.3,6.536,21.368,21.368,0,0,1,1.548,8.17,20.771,20.771,0,0,1-2.709,10.664,19.772,19.772,0,0,1-7.353,7.31L269.266,0H257.14L243.552-19.006h-15.48ZM293.6-60.2V0h-9.8V-60.2Zm38.442,33.282L323.7-18.49V0h-9.8V-60.2h9.8v27.778L351.224-60.2H365.07L339.012-33.884,365.156,0h-12.47ZM404.114-50.4V0h-9.8V-50.4H371.52v-9.8h55.3v9.8Z" transform="translate(1556 1654)" fill="#6e6e6e"/></g></svg>