<svg xmlns="http://www.w3.org/2000/svg" width="1301.437" height="334.909" viewBox="0 0 1301.437 334.909"><g transform="translate(-511.672 -1284.03)"><g transform="translate(-798 -172)"><g transform="translate(-5223 2806)"><path d="M26.021,21.123l99.156-.018L153.86,71.6-.1,71.652Z" transform="translate(6686.035 -1105.667) rotate(-90)" fill="#6e6e6e"/><path d="M109.484.031l164.18,90.494-50.51,31.409L109.043,65.525Z" transform="translate(6484 -1350)" fill="#878787"/><path d="M109.5,121.934,273.664,31.409,223.154,0,109.043,56.409Z" transform="translate(6484 -1137)" fill="#878787"/><path d="M29.932,16.5H306.815L334.9,77.35,0,77.331Z" transform="translate(6516.171 -1015.066) rotate(-90)" fill="#a1a1a1"/></g></g><path d="M55.379-60.2a69.766,69.766,0,0,1,27.142,5.231,66.633,66.633,0,0,1,21.714,14.41,65.119,65.119,0,0,1,14.311,21.812,72.747,72.747,0,0,1,5.132,27.636,72.747,72.747,0,0,1-5.132,27.636,65.119,65.119,0,0,1-14.311,21.812,66.633,66.633,0,0,1-21.714,14.41,69.766,69.766,0,0,1-27.142,5.231H6.622V-60.2Zm45.8,69.089A50.806,50.806,0,0,0,97.82-9.765a43.3,43.3,0,0,0-9.475-14.8,43.162,43.162,0,0,0-14.509-9.672A48.022,48.022,0,0,0,55.379-37.7H29.125V55.475H55.379a48.022,48.022,0,0,0,18.457-3.454A42.645,42.645,0,0,0,97.82,27.543,50.806,50.806,0,0,0,101.176,8.889ZM184.28-60.2V77.979h-22.5V-60.2Zm41.059,38.493a38.129,38.129,0,0,1,3.356-16.285,34.582,34.582,0,0,1,9.278-12.14,41.242,41.242,0,0,1,13.818-7.5A53.955,53.955,0,0,1,268.569-60.2q16.779,0,28.623,8.883t15.989,25.07l-20.727,8.488q-2.764-10.659-8.982-15.3t-15.3-4.639q-10.067,0-15.2,4.738a15.02,15.02,0,0,0-5.132,11.449,13.252,13.252,0,0,0,1.974,7.5,17.385,17.385,0,0,0,5.527,5.132,47.548,47.548,0,0,0,8.389,3.948q4.836,1.777,10.561,3.553,7.5,2.566,14.311,5.626a45.4,45.4,0,0,1,11.943,7.7A33.567,33.567,0,0,1,308.641,23.1,38.005,38.005,0,0,1,311.6,38.894a40.29,40.29,0,0,1-3.356,16.976,34.884,34.884,0,0,1-9.179,12.239,39,39,0,0,1-13.62,7.4,54.312,54.312,0,0,1-16.483,2.467A58.405,58.405,0,0,1,254.751,76.2a42.491,42.491,0,0,1-13.226-5.823,41.565,41.565,0,0,1-10.758-10.462,43.342,43.342,0,0,1-6.81-15.891l19.937-9.475q4.738,20.924,25.07,20.924,9.475,0,14.8-4.244t5.33-12.14a14.642,14.642,0,0,0-1.974-7.9,17.163,17.163,0,0,0-5.33-5.33,37.333,37.333,0,0,0-7.8-3.751q-4.441-1.579-9.376-3.158A121.984,121.984,0,0,1,251,14.022a53.314,53.314,0,0,1-12.633-7.6,37.119,37.119,0,0,1-9.376-11.449Q225.339-11.838,225.339-21.707ZM407.932-37.7V77.979h-22.5V-37.7h-52.31V-60.2H460.045v22.5ZM534.266,11.85H551.2l8.927-2.369A22.825,22.825,0,0,0,570.292.8a24.784,24.784,0,0,0,3.849-13.818q0-10.857-7.008-17.766T549.071-37.7h-34.15V11.85ZM514.922,77.979h-22.5V-60.2h56.653a50.323,50.323,0,0,1,19.049,3.553,44.869,44.869,0,0,1,15.1,9.87,45.1,45.1,0,0,1,9.87,15,49.047,49.047,0,0,1,3.553,18.753,47.677,47.677,0,0,1-6.218,24.477,45.383,45.383,0,0,1-16.878,16.779l35.926,49.744H581.642L550.453,34.354H514.922ZM665.339-60.2V77.979h-22.5V-60.2Zm88.237,76.393L734.428,35.538V77.979h-22.5V-60.2h22.5V3.56L797.6-60.2h31.781L769.565.2l60.009,77.775H800.951ZM918.995-37.7V77.979h-22.5V-37.7h-52.31V-60.2H971.108v22.5Z" transform="translate(842 1442)" fill="#6e6e6e"/></g></svg>